HIERARCHY
ROOT Hips
{
  OFFSET 49.1705 95.6997 11.3552
  CHANNELS 6 Xposition Yposition Zposition Zrotation Xrotation Yrotation
  JOINT spine
  {
    OFFSET 0 7.96568 0.458067
    CHANNELS 3 Zrotation Xrotation Yrotation
    JOINT spine1
    {
      OFFSET 0 10.2431 0
      CHANNELS 3 Zrotation Xrotation Yrotation
      JOINT spine2
      {
        OFFSET 0 9.81475 0
        CHANNELS 3 Zrotation Xrotation Yrotation
        JOINT Neck
        {
          OFFSET 0 25.1986 1.20138
          CHANNELS 3 Zrotation Xrotation Yrotation
          JOINT Head
          {
            OFFSET 0 7.61315 0
            CHANNELS 3 Zrotation Xrotation Yrotation
            End Site
            {
              OFFSET 0 18.4281 -6.07732
            }
          }
        }
        JOINT RightShoulder
        {
          OFFSET -4.1327 10.5992 -0.575451
          CHANNELS 3 Zrotation Xrotation Yrotation
          JOINT RightArm
          {
            OFFSET 0 13.9018 0
            CHANNELS 3 Zrotation Xrotation Yrotation
            JOINT RightArmRoll
            {
              OFFSET 0 7.01789 0
              CHANNELS 3 Zrotation Xrotation Yrotation
              JOINT RightForeArm
              {
                OFFSET 0 20.4406 0
                CHANNELS 3 Zrotation Xrotation Yrotation
                JOINT RightForeArmRoll
                {
                  OFFSET 0 7.87516 0
                  CHANNELS 3 Zrotation Xrotation Yrotation
                  JOINT RightHand
                  {
                    OFFSET 0 15.8037 0
                    CHANNELS 3 Zrotation Xrotation Yrotation
                    End Site
                    {
                      OFFSET 0 0 0
                    }
                  }
                }
              }
            }
          }
        }
        JOINT LeftShoulder
        {
          OFFSET 4.1327 10.5992 -0.575451
          CHANNELS 3 Zrotation Xrotation Yrotation
          JOINT LeftArm
          {
            OFFSET 0 13.9018 0
            CHANNELS 3 Zrotation Xrotation Yrotation
            JOINT LeftArmRoll
            {
              OFFSET 0 7.01788 0
              CHANNELS 3 Zrotation Xrotation Yrotation
              JOINT LeftForeArm
              {
                OFFSET 0 20.4406 0
                CHANNELS 3 Zrotation Xrotation Yrotation
                JOINT LeftForeArmRoll
                {
                  OFFSET 0 7.87515 0
                  CHANNELS 3 Zrotation Xrotation Yrotation
                  JOINT LeftHand
                  {
                    OFFSET 0 15.8037 0
                    CHANNELS 3 Zrotation Xrotation Yrotation
                    End Site
                    {
                      OFFSET 0 0 0
                    }
                  }
                }
              }
            }
          }
        }
      }
    }
  }
  JOINT RightUpLeg
  {
    OFFSET -7.06048 -1.2947 -1.0861
    CHANNELS 3 Zrotation Xrotation Yrotation
    JOINT RightUpLegRoll
    {
      OFFSET 0 18.5308 0
      CHANNELS 3 Zrotation Xrotation Yrotation
      JOINT RightLeg
      {
        OFFSET 0 -22.9476 0
        CHANNELS 3 Zrotation Xrotation Yrotation
        JOINT RightLegRoll
        {
          OFFSET 0 23.0226 0
          CHANNELS 3 Zrotation Xrotation Yrotation
          JOINT RightFoot
          {
            OFFSET 0 19.1625 0
            CHANNELS 3 Zrotation Xrotation Yrotation
            JOINT RightToeBase
            {
              OFFSET 0 16.0188 0
              CHANNELS 3 Zrotation Xrotation Yrotation
              End Site
              {
                OFFSET 0.00678979 7.75783 -0.894206
              }
            }
          }
        }
      }
    }
  }
  JOINT LeftUpLeg
  {
    OFFSET 7.06048 -1.2947 -1.0861
    CHANNELS 3 Zrotation Xrotation Yrotation
    JOINT LeftUpLegRoll
    {
      OFFSET 0 18.5309 0
      CHANNELS 3 Zrotation Xrotation Yrotation
      JOINT LeftLeg
      {
        OFFSET 0 22.9475 0
        CHANNELS 3 Zrotation Xrotation Yrotation
        JOINT LeftLegRoll
        {
          OFFSET 0 23.2355 0
          CHANNELS 3 Zrotation Xrotation Yrotation
          JOINT LeftFoot
          {
            OFFSET 0 18.9496 0
            CHANNELS 3 Zrotation Xrotation Yrotation
            JOINT LeftToeBase
            {
              OFFSET 0 16.0188 0
              CHANNELS 3 Zrotation Xrotation Yrotation
              End Site
              {
                OFFSET -0.0304289 7.75781 -0.894207
              }
            }
          }
        }
      }
    }
  }
}
MOTION
Frames: 4
Frame Time: 0.00208333
82.747 93.1532 17.6907 -9.95616 -2.93459 119.144 0.605208 0.0332262 1.61329 1.19609 4.08614 3.14778 1.16005 5.72999 3.13124 -54.3083 2.18849 -4.09034 48.55 10.3216 -14.0501 13.2402 22.9402 37.6561 162.66 42.5775 -29.8435 2.66155e-006 8.02509e-007 -9.31062e-006 -3.45874 11.3957 0.236019 -1.03841e-005 -3.56178e-007 -3.00708 8.02884 -4.95144 0.697648 -97.5105 -7.99246 5.90126 -72.0211 -7.10724 23.6555 2.59898e-007 -1.02193e-006 -7.84732e-006 172.623 83.151 -158.513 1.29885e-005 9.38195e-006 3.0003 -8.02893 -4.95104 -0.697405 -176.785 -10.4606 -3.68124 180 7.01541e-015 178.899 176.656 7.77697 179.692 3.25841e-006 3.62992e-006 0.0878521 -17.7599 67.2848 18.9678 14.1188 44.092 -16.3956 168.998 30.2154 16.9518 4.5067e-006 -1.99009e-005 -0.645905 1.72526 -12.5826 0.679972 -8.98145e-007 -4.95398e-006 -0.492879 22.129 71.6976 -23.2244 -8.13642 25.2327 3.4877 
82.6854 93.1527 17.7552 -9.96859 -2.95449 119.261 0.611697 0.0383585 1.61742 1.20891 4.09661 3.15528 1.17281 5.74045 3.13853 -54.2524 2.22314 -4.11166 48.5201 10.3162 -14.076 13.2901 22.9314 37.6088 162.817 42.405 -29.935 2.66155e-006 8.02509e-007 -9.31062e-006 -3.39281 11.3475 0.221353 -1.03841e-005 -3.56178e-007 -3.00708 8.02884 -4.95144 0.697648 -97.4673 -8.0062 5.90339 -72.0639 -7.1658 23.7124 2.59898e-007 -1.02193e-006 -7.84732e-006 172.491 83.1342 -158.354 1.29885e-005 9.38195e-006 3.0003 -8.02893 -4.95104 -0.697405 -176.75 -10.4302 -3.69948 180 7.01542e-015 178.9 176.65 7.78173 179.692 3.25841e-006 3.62992e-006 0.087825 -17.768 67.2935 18.9745 14.1428 44.0906 -16.4602 168.956 30.2425 16.9824 4.5067e-006 -1.99009e-005 -0.647083 1.72031 -12.5969 0.680109 -8.98145e-007 -4.95399e-006 -0.494193 22.1657 71.7102 -23.2421 -8.13642 25.2327 3.4877 
82.706 93.143 17.7443 -9.97704 -2.97081 119.377 0.617769 0.0443852 1.62109 1.22089 4.10886 3.16195 1.18472 5.75269 3.14502 -54.1969 2.25693 -4.1339 48.492 10.3093 -14.1018 13.3412 22.9255 37.5642 162.97 42.2383 -30.0218 2.66155e-006 8.02509e-007 -9.31062e-006 -3.33073 11.3181 0.207666 -1.03841e-005 -3.56178e-007 -3.00708 8.02884 -4.95144 0.697648 -97.4241 -8.0205 5.90565 -72.108 -7.22036 23.7649 2.59898e-007 -1.02193e-006 -7.84732e-006 172.374 83.1217 -158.213 1.29885e-005 9.38195e-006 3.0003 -8.02893 -4.95104 -0.697405 -176.717 -10.4071 -3.71576 180 7.01542e-015 178.901 176.644 7.78439 179.693 3.25841e-006 3.62992e-006 0.0877788 -17.7756 67.3011 18.9803 14.1655 44.0882 -16.5219 168.914 30.2639 17.0129 4.5067e-006 -1.99009e-005 -0.648352 1.71543 -12.6122 0.680301 -8.98145e-007 -4.95399e-006 -0.495679 22.2043 71.7245 -23.2617 -8.13642 25.2327 3.4877 
82.6813 93.1401 17.7582 -9.98311 -2.98489 119.494 0.623393 0.0509433 1.6244 1.23195 4.12216 3.168 1.19574 5.76598 3.15089 -54.1392 2.29089 -4.15803 48.4639 10.3002 -14.1279 13.3932 22.9201 37.5196 163.12 42.0761 -30.104 2.66155e-006 8.02509e-007 -9.31062e-006 -3.27361 11.3114 0.195018 -1.03841e-005 -3.56178e-007 -3.00708 8.02884 -4.95144 0.697648 -97.3807 -8.03494 5.90795 -72.1524 -7.2712 23.8157 2.59898e-007 -1.02193e-006 -7.84732e-006 172.265 83.1128 -158.084 1.29885e-005 9.38195e-006 3.0003 -8.02893 -4.95104 -0.697405 -176.685 -10.3879 -3.7308 180 7.01542e-015 178.903 176.638 7.7865 179.693 3.25841e-006 3.62992e-006 0.087729 -17.7826 67.308 18.9855 14.1878 44.0861 -16.5823 168.871 30.2809 17.0433 4.5067e-006 -1.99009e-005 -0.649607 1.71054 -12.6267 0.68041 -8.98145e-007 -4.95399e-006 -0.497174 22.2433 71.7389 -23.2818 -8.13642 25.2327 3.4877 
